# xmcd
#
# Track frame offsets:
#	150
#	19357
#	29010
#	47857
#	56527
#	74482
#	92712
#	101765
#	116605
#	140582
#	155515
#	174307
#
# Disc length: 2542 seconds
#
# Revision: 1
# Processed by: cddbd v1.5PL3 Copyright (c) Steve Scherf et al.
# Submitted via: CDex 1.50Beta5
#
DISCID=ac09ec0c
DTITLE=吉田拓郎 - 明日に向かって走れ
DYEAR=1900
DGENRE=
TTITLE0=明日に向かって走れ
TTITLE1=一つの出来事
TTITLE2=水無し川
TTITLE3=僕の車
TTITLE4=我が身可愛いく
TTITLE5=どうしてこんなに悲しいんだろう
TTITLE6=我が家
TTITLE7=風の街
TTITLE8=午前0時の街
TTITLE9=ひとり想えば
TTITLE10=明日の前に
TTITLE11=悲しいのは
EXTD=
EXTT0=
EXTT1=
EXTT2=
EXTT3=
EXTT4=
EXTT5=
EXTT6=
EXTT7=
EXTT8=
EXTT9=
EXTT10=
EXTT11=
PLAYORDER=
